<svg xmlns="http://www.w3.org/2000/svg" viewBox="0 0 800 500" fill="none" role="img" aria-label="Umple preview">
  <rect width="800" height="500" fill="#f4f7fb"/>
  <rect x="0" y="0" width="800" height="500" fill="url(#bg)" opacity="0.35"/>
  <defs>
    <linearGradient id="bg" x1="0" y1="0" x2="800" y2="500" gradientUnits="userSpaceOnUse">
      <stop stop-color="#dbeafe"/>
      <stop offset="1" stop-color="#ccfbf1"/>
    </linearGradient>
  </defs>
  <rect x="40" y="36" width="720" height="428" rx="18" fill="#fff" stroke="#d8e0ea"/>
  <rect x="40" y="36" width="720" height="52" rx="18" fill="#0f172a"/>
  <rect x="40" y="70" width="720" height="18" fill="#0f172a"/>
  <circle cx="68" cy="62" r="7" fill="#ef4444"/>
  <circle cx="92" cy="62" r="7" fill="#f59e0b"/>
  <circle cx="116" cy="62" r="7" fill="#22c55e"/>
  <text x="150" y="67" fill="#e2e8f0" font-family="Arial, sans-serif" font-size="18" font-weight="600">UmpleOnline · AI-assisted modeling</text>
  <rect x="64" y="112" width="430" height="300" rx="14" fill="#f8fafc" stroke="#dbe3ee"/>
  <rect x="92" y="148" width="120" height="78" rx="10" fill="#fff" stroke="#1a4f7a" stroke-width="2"/>
  <text x="108" y="176" fill="#1a4f7a" font-family="Arial, sans-serif" font-size="16" font-weight="700">Order</text>
  <text x="108" y="198" fill="#64748b" font-family="Arial, sans-serif" font-size="13">+ status: State</text>
  <text x="108" y="216" fill="#64748b" font-family="Arial, sans-serif" font-size="13">+ total: Double</text>
  <rect x="270" y="210" width="120" height="78" rx="10" fill="#fff" stroke="#0f766e" stroke-width="2"/>
  <text x="286" y="238" fill="#0f766e" font-family="Arial, sans-serif" font-size="16" font-weight="700">Customer</text>
  <text x="286" y="260" fill="#64748b" font-family="Arial, sans-serif" font-size="13">+ email: String</text>
  <path d="M212 187h58" stroke="#94a3b8" stroke-width="2" marker-end="url(#arrow)"/>
  <defs>
    <marker id="arrow" markerWidth="8" markerHeight="8" refX="6" refY="3" orient="auto">
      <path d="M0,0 L6,3 L0,6 Z" fill="#94a3b8"/>
    </marker>
  </defs>
  <rect x="520" y="112" width="216" height="300" rx="14" fill="#0f172a"/>
  <text x="544" y="148" fill="#67e8f9" font-family="Arial, sans-serif" font-size="14" font-weight="700">AI Agent</text>
  <text x="544" y="178" fill="#cbd5e1" font-family="Arial, sans-serif" font-size="13">Generate class diagram</text>
  <text x="544" y="206" fill="#cbd5e1" font-family="Arial, sans-serif" font-size="13">Validate implementsReq</text>
  <text x="544" y="234" fill="#cbd5e1" font-family="Arial, sans-serif" font-size="13">Explain model in plain English</text>
  <rect x="544" y="262" width="168" height="42" rx="10" fill="#1a4f7a"/>
  <text x="560" y="289" fill="#fff" font-family="Arial, sans-serif" font-size="14" font-weight="600">Requirements ’ UML</text>
  <rect x="544" y="330" width="168" height="56" rx="10" fill="#134e4a"/>
  <text x="560" y="356" fill="#99f6e4" font-family="Arial, sans-serif" font-size="13">Merged PR #2438</text>
  <text x="560" y="376" fill="#99f6e4" font-family="Arial, sans-serif" font-size="13">Open-source · umple/umple</text>
</svg>
